# xmcd
#
# Track frame offsets:
# 150
# 26023
# 40712
# 57838
# 74181
# 101939
# 120083
# 134558
# 159439
# 180280
#
# Disc length: 2731 seconds
#
# Revision: 1
# Processed by: cddbd v1.4PL0 Copyright (c) Steve Scherf et al.
# Submitted via: Easy CD Ripper 1.45
#
DISCID=850aa90a
DTITLE=Jelly Roll Blues Band - A Long Life
DYEAR=2002
DGENRE=Blues
TTITLE0=Long Life
TTITLE1=Jelly Roll Blues Band - We're here for a Good Time
TTITLE2=Jelly Roll Blues Band - Kickin' Motor Scooter
TTITLE3=Jelly Roll Blues Band - Jezebel
TTITLE4=Jelly Roll Blues Band - Room with a View
TTITLE5=Jelly Roll Blues Band - Oasis
TTITLE6=Jelly Roll Blues Band - Off my Mind
TTITLE7=Jelly Roll Blues Band - Sit Right Down
TTITLE8=Jelly Roll Blues Band - Were did all the Hippies Go?
TTITLE9=Jelly Roll Blues Band - Flair for the Square
EXTD=none
EXTT0=
EXTT1=
EXTT2=
EXTT3=
EXTT4=
EXTT5=
EXTT6=
EXTT7=
EXTT8=
EXTT9=
PLAYORDER=
